<svg xmlns="http://www.w3.org/2000/svg" width="300" height="90" viewBox="0 0 300 90" fill="none">
<path d="M22 43 C48 31, 72 34, 99 36 C135 38, 166 31, 198 35 C229 38, 255 34, 278 39
C291 41, 298 46, 286 49 C261 55, 233 50, 207 53 C174 57, 142 50, 111 53 C78 56, 48 51, 28 52
C16 52, 12 47, 22 43 Z" fill="#9FD4F5" opacity=".58"/><path d="M29 39 C61 28, 91 32, 120 34 C153 36, 188 29, 218 33 C243 36, 266 33, 282 37
C271 40, 250 40, 228 39 C193 38, 166 43, 131 40 C94 37, 61 39, 32 44 Z" fill="#9FD4F5" opacity=".26"/><path d="M30 49 C62 47, 89 51, 120 48 C153 45, 179 52, 210 48 C239 45, 264 49, 283 46
C276 54, 251 55, 223 53 C191 57, 160 52, 128 56 C93 59, 58 54, 34 55 Z" fill="#9FD4F5" opacity=".22"/><path d="M30 35 C90 32, 125 37, 164 34 C205 31, 238 37, 270 34"
stroke="#9FD4F5" stroke-width="1.5" stroke-linecap="round" opacity="0.18" fill="none"/><path d="M35 38 C90 35, 125 40, 164 37 C205 34, 238 40, 263 37"
stroke="#9FD4F5" stroke-width="1.8" stroke-linecap="round" opacity="0.20" fill="none"/><path d="M40 46 C90 43, 125 48, 164 45 C205 42, 238 48, 256 45"
stroke="#9FD4F5" stroke-width="2.0" stroke-linecap="round" opacity="0.23" fill="none"/><path d="M45 51 C90 48, 125 53, 164 50 C205 47, 238 53, 249 50"
stroke="#9FD4F5" stroke-width="2.2" stroke-linecap="round" opacity="0.26" fill="none"/><path d="M50 55 C90 52, 125 57, 164 54 C205 51, 238 57, 242 54"
stroke="#9FD4F5" stroke-width="2.5" stroke-linecap="round" opacity="0.28" fill="none"/><path d="M15.6 33.1 C23.6 31.1, 37.4 34.10012, 42.4 33.1"
stroke="#9FD4F5" stroke-width="0.9" stroke-linecap="round" opacity="0.33" fill="none"/><path d="M15.2 36.3 C23.2 34.3, 49.5 37.34776, 54.5 36.3"
stroke="#9FD4F5" stroke-width="1.0" stroke-linecap="round" opacity="0.19" fill="none"/><path d="M19.8 40.1 C27.8 38.1, 44.1 41.10614, 49.1 40.1"
stroke="#9FD4F5" stroke-width="0.9" stroke-linecap="round" opacity="0.31" fill="none"/><path d="M16.6 46.4 C24.6 44.4, 40.1 47.35706, 45.1 46.4"
stroke="#9FD4F5" stroke-width="1.3" stroke-linecap="round" opacity="0.18" fill="none"/><path d="M13.9 49.4 C21.9 47.4, 46.8 50.36100, 51.8 49.4"
stroke="#9FD4F5" stroke-width="0.8" stroke-linecap="round" opacity="0.37" fill="none"/><path d="M18.6 52.4 C26.6 50.4, 38.3 53.38687, 43.3 52.4"
stroke="#9FD4F5" stroke-width="1.4" stroke-linecap="round" opacity="0.30" fill="none"/><path d="M285.3 34.1 C293.3 32.1, 239.8 35.14491, 244.8 34.1"
stroke="#9FD4F5" stroke-width="1.5" stroke-linecap="round" opacity="0.26" fill="none"/><path d="M281.7 38.5 C289.7 36.5, 238.4 39.47408, 243.4 38.5"
stroke="#9FD4F5" stroke-width="1.4" stroke-linecap="round" opacity="0.30" fill="none"/><path d="M283.9 40.9 C291.9 38.9, 249.4 41.91159, 254.4 40.9"
stroke="#9FD4F5" stroke-width="0.9" stroke-linecap="round" opacity="0.20" fill="none"/><path d="M277.3 45.1 C285.3 43.1, 248.6 46.11189, 253.6 45.1"
stroke="#9FD4F5" stroke-width="1.2" stroke-linecap="round" opacity="0.25" fill="none"/><path d="M279.2 49.1 C287.2 47.1, 247.1 50.06791, 252.1 49.1"
stroke="#9FD4F5" stroke-width="1.4" stroke-linecap="round" opacity="0.31" fill="none"/><path d="M282.5 54.9 C290.5 52.9, 247.6 55.91651, 252.6 54.9"
stroke="#9FD4F5" stroke-width="0.8" stroke-linecap="round" opacity="0.26" fill="none"/>
</svg>
